<?xml version="1.0" encoding="UTF-8" standalone="no"?>
<svg xmlns:svg="http://www.w3.org/2000/svg" xmlns="http://www.w3.org/2000/svg" width="240" height="320" version="1.0">
  <g transform="translate(-150,-439)">
    <path d="M 228.27395,680.11448 C 228.27395,680.11448 216.33485,687.38168 236.57915,689.45799 C 260.97585,692.57236 273.95325,692.05375 300.94545,686.86265 C 300.94545,686.86265 308.21265,691.5343 318.07515,695.16811 C 257.34245,721.12231 180.51815,693.61041 228.27385,680.11451 L 228.27395,680.11448 z M 220.48755,646.37428 C 220.48755,646.37428 207.51065,656.23661 227.75475,658.31288 C 254.22825,660.90864 274.99155,661.42725 310.80815,654.16025 C 310.80815,654.16025 315.47995,659.35114 323.26605,661.94668 C 250.07545,683.74828 168.06005,664.02299 220.48805,646.37418 L 220.48755,646.37428 z M 363.75455,705.54968 C 363.75455,705.54968 372.57905,712.81709 353.89195,718.52658 C 319.11325,728.90838 208.02895,732.02268 176.88395,718.52658 C 165.98335,713.85514 186.74675,707.10678 193.49445,706.06868 C 200.24265,704.5116 203.87605,704.5116 203.87605,704.5116 C 191.93765,696.20614 124.45655,721.6411 169.61655,728.9083 C 293.67755,749.1526 395.93755,720.08402 363.75355,705.5496 L 363.75455,705.54968 z M 233.98355,611.07648 C 233.98355,611.07648 177.40365,624.57258 213.73965,629.24428 C 229.31215,631.32038 259.93795,630.80178 288.48775,628.72525 C 311.84625,626.64894 335.20535,622.49631 335.20535,622.49631 C 335.20535,622.49631 326.89985,626.1297 321.18975,629.76372 C 263.57185,644.81672 153.00675,638.06876 184.67075,622.49631 C 211.66305,609.51901 233.98325,611.07651 233.98325,611.07651 L 233.98355,611.07648 z M 335.20555,667.65638 C 393.34275,637.54948 366.35065,608.48098 347.66345,612.11478 C 342.99155,613.15283 340.91525,614.19109 340.91525,614.19109 C 340.91525,614.19109 342.47255,611.07652 346.10595,610.03846 C 382.96115,597.06116 412.02975,648.96936 334.16755,669.21366 C 334.16755,669.21366 334.68615,668.69463 335.20555,667.65637 L 335.20555,667.65638 z M 239.69385,749.67168 C 295.75515,753.30549 381.40385,747.59537 383.47985,721.12228 C 383.47985,721.12228 379.32735,731.50408 337.28175,739.28988 C 289.52595,748.11458 230.35075,747.07631 195.57175,741.36619 C 195.57175,741.36619 202.83875,747.59534 239.69375,749.67165 L 239.69385,749.67168 z " style="fill:#4e7896"/>
    <a transform="translate(-81,63)">
      <path style="fill:#f58219" d="M 381.05061,376.92173 C 381.05061,376.92173 413.23381,409.62393 350.42451,458.93703 C 300.07331,498.90623 339.00471,521.74583 350.42451,547.69993 C 320.83671,521.22713 299.55431,497.86803 314.08851,476.06643 C 335.37131,443.88323 394.02751,428.31103 381.05061,376.92183 L 381.05061,376.92173 z M 364.44011,525.89873 C 379.49311,543.02863 360.28731,558.60133 360.28731,558.60133 C 360.28731,558.60133 398.69941,538.87603 381.05061,514.47893 C 364.95871,491.12043 352.50081,479.70063 419.98171,440.76913 C 419.98171,440.76913 313.56971,467.24263 364.44011,525.89883 L 364.44011,525.89873 z "/>
    </a>
  </g>
</svg>